{
  "accessors": [
    {
      "bufferView": 2,
      "componentType": 5126,
      "count": 20,
      "max": [
        0.4106689989566803,
        -1.0675590038299561,
        1.0834959745407104
      ],
      "min": [
        -0.43132698535919189,
        -1.8830399513244629,
        0.15549199283123016
      ],
      "type": "VEC3"
    },
    {
      "bufferView": 2,
      "byteOffset": 240,
      "componentType": 5126,
      "count": 20,
      "max": [
        0.92739522457122803,
        0.97373455762863159,
        0.90327984094619751
      ],
      "min": [
        -0.98081284761428833,
        -0.97665119171142578,
        -0.93144881725311279
      ],
      "type": "VEC3"
    },
    {
      "bufferView": 3,
      "componentType": 5126,
      "count": 20,
      "max": [
        0.51628261804580688,
        0.91315299272537231,
        0.51524943113327026,
        1
      ],
      "min": [
        -0.91570693254470825,
        -0.87985491752624512,
        -0.99637061357498169,
        1
      ],
      "type": "VEC4"
    },
    {
      "bufferView": 1,
      "componentType": 5126,
      "count": 20,
      "max": [
        0.80649101734161377,
        0.97695702314376831
      ],
      "min": [
        0.019037999212741852,
        0.02304299920797348
      ],
      "type": "VEC2"
    },
    {
      "bufferView": 0,
      "componentType": 5125,
      "count": 96,
      "max": [
        19
      ],
      "min": [
        0
      ],
      "type": "SCALAR"
    },
    {
      "bufferView": 2,
      "byteOffset": 480,
      "componentType": 5126,
      "count": 20,
      "max": [
        -0.023033000528812408,
        1.803164005279541,
        1.4253129959106445
      ],
      "min": [
        -1.2951929569244385,
        0.32087299227714539,
        -0.071097999811172485
      ],
      "type": "VEC3"
    },
    {
      "bufferView": 2,
      "byteOffset": 720,
      "componentType": 5126,
      "count": 20,
      "max": [
        0.92511427402496338,
        0.8491244912147522,
        0.97210127115249634
      ],
      "min": [
        -0.944438636302948,
        -0.92034709453582764,
        -0.95572036504745483
      ],
      "type": "VEC3"
    },
    {
      "bufferView": 3,
      "byteOffset": 320,
      "componentType": 5126,
      "count": 20,
      "max": [
        0.39328137040138245,
        0.556144118309021,
        0.85651165246963501,
        1
      ],
      "min": [
        -0.94869130849838257,
        -0.97935634851455688,
        -0.88068002462387085,
        1
      ],
      "type": "VEC4"
    },
    {
      "bufferView": 1,
      "byteOffset": 160,
      "componentType": 5126,
      "count": 20,
      "max": [
        0.80649101734161377,
        0.97695702314376831
      ],
      "min": [
        0.019037999212741852,
        0.02304299920797348
      ],
      "type": "VEC2"
    },
    {
      "bufferView": 0,
      "byteOffset": 384,
      "componentType": 5125,
      "count": 96,
      "max": [
        19
      ],
      "min": [
        0
      ],
      "type": "SCALAR"
    },
    {
      "bufferView": 2,
      "byteOffset": 960,
      "componentType": 5126,
      "count": 38,
      "max": [
        0.35533401370048523,
        1.4052729606628418,
        0.66703498363494873
      ],
      "min": [
        -0.10166600346565247,
        0.99493801593780518,
        0.28134799003601074
      ],
      "type": "VEC3"
    },
    {
      "bufferView": 2,
      "byteOffset": 1416,
      "componentType": 5126,
      "count": 38,
      "max": [
        0.90117120742797852,
        0.97143709659576416,
        0.95575708150863647
      ],
      "min": [
        -0.9208102822303772,
        -0.94341117143630981,
        -0.85393637418746948
      ],
      "type": "VEC3"
    },
    {
      "bufferView": 3,
      "byteOffset": 640,
      "componentType": 5126,
      "count": 38,
      "max": [
        0.92718797922134399,
        0.99201369285583496,
        0.99118548631668091,
        1
      ],
      "min": [
        -0.93372428417205811,
        -0.85439515113830566,
        -0.98889738321304321,
        1
      ],
      "type": "VEC4"
    },
    {
      "bufferView": 1,
      "byteOffset": 320,
      "componentType": 5126,
      "count": 38,
      "max": [
        0.98805499076843262,
        0.97523802518844604
      ],
      "min": [
        0.013504000380635262,
        0.026766000315546989
      ],
      "type": "VEC2"
    },
    {
      "bufferView": 0,
      "byteOffset": 768,
      "componentType": 5125,
      "count": 150,
      "max": [
        37
      ],
      "min": [
        0
      ],
      "type": "SCALAR"
    },
    {
      "bufferView": 2,
      "byteOffset": 1872,
      "componentType": 5126,
      "count": 11,
      "max": [
        -0.096289999783039093,
        -0.51337802410125732,
        2.0861790180206299
      ],
      "min": [
        -1.0554989576339722,
        -1.5219429731369019,
        0.18141800165176392
      ],
      "type": "VEC3"
    },
    {
      "bufferView": 2,
      "byteOffset": 2004,
      "componentType": 5126,
      "count": 11,
      "max": [
        0.95258861780166626,
        0.93023377656936646,
        0.99913835525512695
      ],
      "min": [
        -0.97255891561508179,
        -0.91974633932113647,
        0.16110585629940033
      ],
      "type": "VEC3"
    },
    {
      "bufferView": 3,
      "byteOffset": 1248,
      "componentType": 5126,
      "count": 11,
      "max": [
        0.94341039657592773,
        0.35320079326629639,
        0.96753126382827759,
        1
      ],
      "min": [
        0.21049962937831879,
        -0.0081838248297572136,
        -0.97755974531173706,
        1
      ],
      "type": "VEC4"
    },
    {
      "bufferView": 1,
      "byteOffset": 624,
      "componentType": 5126,
      "count": 11,
      "max": [
        0.99990200996398926,
        0.95605301856994629
      ],
      "min": [
        9.7999996796716005e-05,
        9.7999996796716005e-05
      ],
      "type": "VEC2"
    },
    {
      "bufferView": 0,
      "byteOffset": 1368,
      "componentType": 5125,
      "count": 45,
      "max": [
        10
      ],
      "min": [
        0
      ],
      "type": "SCALAR"
    },
    {
      "bufferView": 2,
      "byteOffset": 2136,
      "componentType": 5126,
      "count": 11,
      "max": [
        0.84348100423812866,
        -0.94755297899246216,
        0.66956102848052979
      ],
      "min": [
        0.29796499013900757,
        -1.4111419916152954,
        0.23817799985408783
      ],
      "type": "VEC3"
    },
    {
      "bufferView": 2,
      "byteOffset": 2268,
      "componentType": 5126,
      "count": 11,
      "max": [
        0.94507241249084473,
        0.98027735948562622,
        0.99991869926452637
      ],
      "min": [
        -0.99101674556732178,
        -0.90697091817855835,
        -0.22850380837917328
      ],
      "type": "VEC3"
    },
    {
      "bufferView": 3,
      "byteOffset": 1424,
      "componentType": 5126,
      "count": 11,
      "max": [
        0.60570091009140015,
        0.093340069055557251,
        0.98605048656463623,
        1
      ],
      "min": [
        -0.35561421513557434,
        -0.86996263265609741,
        -0.93412595987319946,
        1
      ],
      "type": "VEC4"
    },
    {
      "bufferView": 1,
      "byteOffset": 712,
      "componentType": 5126,
      "count": 11,
      "max": [
        0.99990200996398926,
        0.95605301856994629
      ],
      "min": [
        9.7999996796716005e-05,
        9.7999996796716005e-05
      ],
      "type": "VEC2"
    },
    {
      "bufferView": 0,
      "byteOffset": 1548,
      "componentType": 5125,
      "count": 45,
      "max": [
        10
      ],
      "min": [
        0
      ],
      "type": "SCALAR"
    },
    {
      "bufferView": 2,
      "byteOffset": 2400,
      "componentType": 5126,
      "count": 8,
      "max": [
        2.3251070976257324,
        2.2624220848083496,
        0.29654699563980103
      ],
      "min": [
        -1.9860600233078003,
        -2.0487449169158936,
        0.29654699563980103
      ],
      "type": "VEC3"
    },
    {
      "bufferView": 2,
      "byteOffset": 2496,
      "componentType": 5126,
      "count": 8,
      "max": [
        0,
        -0,
        1
      ],
      "min": [
        0,
        -0,
        1
      ],
      "type": "VEC3"
    },
    {
      "bufferView": 0,
      "byteOffset": 1728,
      "componentType": 5125,
      "count": 18,
      "max": [
        7
      ],
      "min": [
        0
      ],
      "type": "SCALAR"
    },
    {
      "bufferView": 2,
      "byteOffset": 2592,
      "componentType": 5126,
      "count": 769,
      "max": [
        0.80300402641296387,
        0.80887901782989502,
        3.2770349979400635
      ],
      "min": [
        -0.86682999134063721,
        -0.78964501619338989,
        0.28277701139450073
      ],
      "type": "VEC3"
    },
    {
      "bufferView": 2,
      "byteOffset": 11820,
      "componentType": 5126,
      "count": 769,
      "max": [
        0.99983435869216919,
        0.99978727102279663,
        0.988475501537323
      ],
      "min": [
        -0.99654275178909302,
        -0.99962931871414185,
        -0.99833142757415771
      ],
      "type": "VEC3"
    },
    {
      "bufferView": 3,
      "byteOffset": 1600,
      "componentType": 5126,
      "count": 769,
      "max": [
        0.99999856948852539,
        0.99997818470001221,
        0.99873846769332886,
        1
      ],
      "min": [
        -0.99880468845367432,
        -0.99990040063858032,
        -0.99713891744613647,
        -1
      ],
      "type": "VEC4"
    },
    {
      "bufferView": 1,
      "byteOffset": 800,
      "componentType": 5126,
      "count": 769,
      "max": [
        0.98511701822280884,
        0.99442499876022339
      ],
      "min": [
        0.0087780002504587173,
        0.0097570000216364861
      ],
      "type": "VEC2"
    },
    {
      "bufferView": 0,
      "byteOffset": 1800,
      "componentType": 5125,
      "count": 3030,
      "max": [
        768
      ],
      "min": [
        0
      ],
      "type": "SCALAR"
    }
  ],
  "asset": {
    "extras": {
      "author": "MachuPeaches (https://sketchfab.com/swright2893)",
      "license": "CC-BY-NC-4.0 (http://creativecommons.org/licenses/by-nc/4.0/)",
      "source": "https://sketchfab.com/models/c2731dd945e14c27a1e59ab10d967c38",
      "title": "IML \"CYOA\" Demo Composition."
    },
    "generator": "Sketchfab-3.36.2",
    "version": "2.0"
  },
  "bufferViews": [
    {
      "buffer": 0,
      "byteLength": 13920,
      "byteOffset": 0,
      "name": "floatBufferViews",
      "target": 34963
    },
    {
      "buffer": 0,
      "byteLength": 6952,
      "byteOffset": 13920,
      "byteStride": 8,
      "name": "floatBufferViews",
      "target": 34962
    },
    {
      "buffer": 0,
      "byteLength": 21048,
      "byteOffset": 20872,
      "byteStride": 12,
      "name": "floatBufferViews",
      "target": 34962
    },
    {
      "buffer": 0,
      "byteLength": 13904,
      "byteOffset": 41920,
      "byteStride": 16,
      "name": "floatBufferViews",
      "target": 34962
    }
  ],
  "buffers": [
    {
      "byteLength": 55824,
      "uri": "scene.bin"
    }
  ],
  "images": [
    {
      "uri": "textures/Material.006_baseColor.png"
    },
    {
      "uri": "textures/Material.005_baseColor.png"
    },
    {
      "uri": "textures/Material.004_baseColor.png"
    },
    {
      "uri": "textures/Material.007_baseColor.png"
    },
    {
      "uri": "textures/Material.003_baseColor.png"
    },
    {
      "uri": "textures/Material.008_baseColor.png"
    },
    {
      "uri": "textures/Material.008_normal.png"
    }
  ],
  "materials": [
    {
      "doubleSided": true,
      "name": "Material.003",
      "pbrMetallicRoughness": {
        "baseColorFactor": [
          1,
          1,
          1,
          1
        ],
        "baseColorTexture": {
          "index": 4,
          "texCoord": 0
        },
        "metallicFactor": 0,
        "roughnessFactor": 0.59999999999999998
      }
    },
    {
      "doubleSided": true,
      "name": "Material.004",
      "pbrMetallicRoughness": {
        "baseColorFactor": [
          1,
          1,
          1,
          1
        ],
        "baseColorTexture": {
          "index": 2,
          "texCoord": 0
        },
        "metallicFactor": 0,
        "roughnessFactor": 0.59999999999999998
      }
    },
    {
      "doubleSided": true,
      "name": "Material.005",
      "pbrMetallicRoughness": {
        "baseColorFactor": [
          1,
          1,
          1,
          1
        ],
        "baseColorTexture": {
          "index": 1,
          "texCoord": 0
        },
        "metallicFactor": 0,
        "roughnessFactor": 0.59999999999999998
      }
    },
    {
      "doubleSided": true,
      "name": "Material.006",
      "pbrMetallicRoughness": {
        "baseColorFactor": [
          1,
          1,
          1,
          1
        ],
        "baseColorTexture": {
          "index": 0,
          "texCoord": 0
        },
        "metallicFactor": 0,
        "roughnessFactor": 0.59999999999999998
      }
    },
    {
      "doubleSided": true,
      "name": "Material.007",
      "pbrMetallicRoughness": {
        "baseColorFactor": [
          1,
          1,
          1,
          1
        ],
        "baseColorTexture": {
          "index": 3,
          "texCoord": 0
        },
        "metallicFactor": 0,
        "roughnessFactor": 0.59999999999999998
      }
    },
    {
      "alphaMode": "BLEND",
      "doubleSided": true,
      "name": "Material.008",
      "normalTexture": {
        "index": 6,
        "scale": 1,
        "texCoord": 0
      },
      "pbrMetallicRoughness": {
        "baseColorFactor": [
          1,
          1,
          1,
          1
        ],
        "baseColorTexture": {
          "index": 5,
          "texCoord": 0
        },
        "metallicFactor": 0,
        "roughnessFactor": 0.59999999999999998
      }
    },
    {
      "doubleSided": true,
      "name": "Material.009",
      "pbrMetallicRoughness": {
        "baseColorFactor": [
          0.11584505740000001,
          0.1184363995,
          0.12256760429999999,
          1
        ],
        "metallicFactor": 0,
        "roughnessFactor": 0.59999999999999998
      }
    }
  ],
  "meshes": [
    {
      "primitives": [
        {
          "attributes": {
            "NORMAL": 1,
            "POSITION": 0,
            "TANGENT": 2,
            "TEXCOORD_0": 3
          },
          "indices": 4,
          "material": 0,
          "mode": 4
        }
      ]
    },
    {
      "primitives": [
        {
          "attributes": {
            "NORMAL": 6,
            "POSITION": 5,
            "TANGENT": 7,
            "TEXCOORD_0": 8
          },
          "indices": 9,
          "material": 1,
          "mode": 4
        }
      ]
    },
    {
      "primitives": [
        {
          "attributes": {
            "NORMAL": 11,
            "POSITION": 10,
            "TANGENT": 12,
            "TEXCOORD_0": 13
          },
          "indices": 14,
          "material": 2,
          "mode": 4
        }
      ]
    },
    {
      "primitives": [
        {
          "attributes": {
            "NORMAL": 16,
            "POSITION": 15,
            "TANGENT": 17,
            "TEXCOORD_0": 18
          },
          "indices": 19,
          "material": 3,
          "mode": 4
        }
      ]
    },
    {
      "primitives": [
        {
          "attributes": {
            "NORMAL": 21,
            "POSITION": 20,
            "TANGENT": 22,
            "TEXCOORD_0": 23
          },
          "indices": 24,
          "material": 4,
          "mode": 4
        }
      ]
    },
    {
      "primitives": [
        {
          "attributes": {
            "NORMAL": 26,
            "POSITION": 25
          },
          "indices": 27,
          "material": 6,
          "mode": 4
        }
      ]
    },
    {
      "primitives": [
        {
          "attributes": {
            "NORMAL": 29,
            "POSITION": 28,
            "TANGENT": 30,
            "TEXCOORD_0": 31
          },
          "indices": 32,
          "material": 5,
          "mode": 4
        }
      ]
    }
  ],
  "nodes": [
    {
      "children": [
        1
      ],
      "name": "RootNode (gltf orientation matrix)",
      "rotation": [
        -0.70710678118654746,
        -0,
        -0,
        0.70710678118654757
      ]
    },
    {
      "children": [
        2
      ],
      "name": "RootNode (model correction matrix)"
    },
    {
      "children": [
        3,
        4,
        5,
        6,
        7,
        8,
        9
      ],
      "name": "1b944cc9ee224e65883885e7afcfb5e5.obj.cleaner.materialmerger.gles"
    },
    {
      "mesh": 0,
      "name": ""
    },
    {
      "mesh": 1,
      "name": ""
    },
    {
      "mesh": 2,
      "name": ""
    },
    {
      "mesh": 3,
      "name": ""
    },
    {
      "mesh": 4,
      "name": ""
    },
    {
      "mesh": 5,
      "name": ""
    },
    {
      "mesh": 6,
      "name": ""
    }
  ],
  "samplers": [
    {
      "magFilter": 9729,
      "minFilter": 9987,
      "wrapS": 10497,
      "wrapT": 10497
    }
  ],
  "scene": 0,
  "scenes": [
    {
      "name": "OSG_Scene",
      "nodes": [
        0
      ]
    }
  ],
  "textures": [
    {
      "sampler": 0,
      "source": 0
    },
    {
      "sampler": 0,
      "source": 1
    },
    {
      "sampler": 0,
      "source": 2
    },
    {
      "sampler": 0,
      "source": 3
    },
    {
      "sampler": 0,
      "source": 4
    },
    {
      "sampler": 0,
      "source": 5
    },
    {
      "sampler": 0,
      "source": 6
    }
  ]
}

